<svg width="513" height="513" viewBox="0 0 513 513" fill="none" xmlns="http://www.w3.org/2000/svg">
<circle cx="256.5" cy="256.5" r="256.5" fill="#A78FD6"/>
<path d="M346.562 229.781C346.562 255.331 338.269 278.933 324.297 298.081L394.768 368.607C401.726 375.565 401.726 386.865 394.768 393.823C387.81 400.781 376.51 400.781 369.552 393.823L299.081 323.297C279.933 337.324 256.331 345.562 230.781 345.562C166.823 345.562 115 293.739 115 229.781C115 165.823 166.823 114 230.781 114C294.739 114 346.562 165.823 346.562 229.781ZM230.781 309.938C241.308 309.938 251.731 307.864 261.456 303.836C271.181 299.808 280.017 293.903 287.46 286.46C294.903 279.017 300.808 270.181 304.836 260.456C308.864 250.731 310.938 240.308 310.938 229.781C310.938 219.255 308.864 208.832 304.836 199.107C300.808 189.382 294.903 180.545 287.46 173.102C280.017 165.659 271.181 159.755 261.456 155.727C251.731 151.698 241.308 149.625 230.781 149.625C220.255 149.625 209.832 151.698 200.107 155.727C190.382 159.755 181.545 165.659 174.102 173.102C166.659 180.545 160.755 189.382 156.727 199.107C152.698 208.832 150.625 219.255 150.625 229.781C150.625 240.308 152.698 250.731 156.727 260.456C160.755 270.181 166.659 279.017 174.102 286.46C181.545 293.903 190.382 299.808 200.107 303.836C209.832 307.864 220.255 309.938 230.781 309.938Z" fill="white"/>
</svg>
