<svg xmlns="http://www.w3.org/2000/svg" xmlns:xlink="http://www.w3.org/1999/xlink" width="1920" zoomAndPan="magnify" viewBox="0 0 1440 809.999993" height="1080" preserveAspectRatio="xMidYMid meet" version="1.0"><defs><linearGradient x1="0" gradientTransform="matrix(0.75, 0, 0, 0.75, 0.00000622222, 0.00002)" y1="0" x2="0" gradientUnits="userSpaceOnUse" y2="1079.999955" id="df038aa42e"><stop stop-opacity="1" stop-color="rgb(65.098572%, 49.398804%, 74.899292%)" offset="0"/><stop stop-opacity="1" stop-color="rgb(64.91394%, 49.305725%, 74.855042%)" offset="0.0078125"/><stop stop-opacity="1" stop-color="rgb(64.546204%, 49.119568%, 74.765015%)" offset="0.015625"/><stop stop-opacity="1" stop-color="rgb(64.178467%, 48.931885%, 74.676514%)" offset="0.0234375"/><stop stop-opacity="1" stop-color="rgb(63.81073%, 48.745728%, 74.586487%)" offset="0.03125"/><stop stop-opacity="1" stop-color="rgb(63.442993%, 48.558044%, 74.497986%)" offset="0.0390625"/><stop stop-opacity="1" stop-color="rgb(63.075256%, 48.371887%, 74.409485%)" offset="0.046875"/><stop stop-opacity="1" stop-color="rgb(62.70752%, 48.18573%, 74.319458%)" offset="0.0546875"/><stop stop-opacity="1" stop-color="rgb(62.338257%, 47.998047%, 74.230957%)" offset="0.0625"/><stop stop-opacity="1" stop-color="rgb(61.97052%, 47.81189%, 74.142456%)" offset="0.0703125"/><stop stop-opacity="1" stop-color="rgb(61.602783%, 47.625732%, 74.052429%)" offset="0.078125"/><stop stop-opacity="1" stop-color="rgb(61.235046%, 47.438049%, 73.963928%)" offset="0.0859375"/><stop stop-opacity="1" stop-color="rgb(60.86731%, 47.251892%, 73.875427%)" offset="0.09375"/><stop stop-opacity="1" stop-color="rgb(60.499573%, 47.065735%, 73.7854%)" offset="0.101562"/><stop stop-opacity="1" stop-color="rgb(60.13031%, 46.878052%, 73.696899%)" offset="0.109375"/><stop stop-opacity="1" stop-color="rgb(59.762573%, 46.691895%, 73.606873%)" offset="0.117188"/><stop stop-opacity="1" stop-color="rgb(59.394836%, 46.504211%, 73.518372%)" offset="0.125"/><stop stop-opacity="1" stop-color="rgb(59.0271%, 46.318054%, 73.429871%)" offset="0.132812"/><stop stop-opacity="1" stop-color="rgb(58.659363%, 46.131897%, 73.339844%)" offset="0.140625"/><stop stop-opacity="1" stop-color="rgb(58.291626%, 45.944214%, 73.251343%)" offset="0.148437"/><stop stop-opacity="1" stop-color="rgb(57.923889%, 45.758057%, 73.162842%)" offset="0.15625"/><stop stop-opacity="1" stop-color="rgb(57.554626%, 45.571899%, 73.072815%)" offset="0.164062"/><stop stop-opacity="1" stop-color="rgb(57.18689%, 45.384216%, 72.984314%)" offset="0.171875"/><stop stop-opacity="1" stop-color="rgb(56.819153%, 45.198059%, 72.895813%)" offset="0.179687"/><stop stop-opacity="1" stop-color="rgb(56.451416%, 45.010376%, 72.805786%)" offset="0.1875"/><stop stop-opacity="1" stop-color="rgb(56.083679%, 44.824219%, 72.717285%)" offset="0.195312"/><stop stop-opacity="1" stop-color="rgb(55.715942%, 44.638062%, 72.627258%)" offset="0.203125"/><stop stop-opacity="1" stop-color="rgb(55.34668%, 44.450378%, 72.538757%)" offset="0.210938"/><stop stop-opacity="1" stop-color="rgb(54.978943%, 44.264221%, 72.450256%)" offset="0.21875"/><stop stop-opacity="1" stop-color="rgb(54.611206%, 44.078064%, 72.360229%)" offset="0.226562"/><stop stop-opacity="1" stop-color="rgb(54.243469%, 43.890381%, 72.271729%)" offset="0.234375"/><stop stop-opacity="1" stop-color="rgb(53.875732%, 43.704224%, 72.183228%)" offset="0.242188"/><stop stop-opacity="1" stop-color="rgb(53.507996%, 43.518066%, 72.093201%)" offset="0.25"/><stop stop-opacity="1" stop-color="rgb(53.140259%, 43.330383%, 72.0047%)" offset="0.257812"/><stop stop-opacity="1" stop-color="rgb(52.770996%, 43.144226%, 71.914673%)" offset="0.265625"/><stop stop-opacity="1" stop-color="rgb(52.403259%, 42.956543%, 71.826172%)" offset="0.273437"/><stop stop-opacity="1" stop-color="rgb(52.035522%, 42.770386%, 71.737671%)" offset="0.28125"/><stop stop-opacity="1" stop-color="rgb(51.667786%, 42.584229%, 71.647644%)" offset="0.289062"/><stop stop-opacity="1" stop-color="rgb(51.300049%, 42.396545%, 71.559143%)" offset="0.296875"/><stop stop-opacity="1" stop-color="rgb(50.932312%, 42.210388%, 71.470642%)" offset="0.304687"/><stop stop-opacity="1" stop-color="rgb(50.564575%, 42.024231%, 71.380615%)" offset="0.3125"/><stop stop-opacity="1" stop-color="rgb(50.195312%, 41.836548%, 71.292114%)" offset="0.320312"/><stop stop-opacity="1" stop-color="rgb(49.827576%, 41.650391%, 71.203613%)" offset="0.328125"/><stop stop-opacity="1" stop-color="rgb(49.459839%, 41.462708%, 71.113586%)" offset="0.335937"/><stop stop-opacity="1" stop-color="rgb(49.092102%, 41.27655%, 71.025085%)" offset="0.34375"/><stop stop-opacity="1" stop-color="rgb(48.724365%, 41.090393%, 70.935059%)" offset="0.351562"/><stop stop-opacity="1" stop-color="rgb(48.356628%, 40.90271%, 70.846558%)" offset="0.359375"/><stop stop-opacity="1" stop-color="rgb(47.987366%, 40.716553%, 70.758057%)" offset="0.367187"/><stop stop-opacity="1" stop-color="rgb(47.619629%, 40.530396%, 70.66803%)" offset="0.375"/><stop stop-opacity="1" stop-color="rgb(47.251892%, 40.342712%, 70.579529%)" offset="0.382812"/><stop stop-opacity="1" stop-color="rgb(46.884155%, 40.156555%, 70.491028%)" offset="0.390625"/><stop stop-opacity="1" stop-color="rgb(46.516418%, 39.970398%, 70.401001%)" offset="0.398438"/><stop stop-opacity="1" stop-color="rgb(46.148682%, 39.782715%, 70.3125%)" offset="0.40625"/><stop stop-opacity="1" stop-color="rgb(45.780945%, 39.596558%, 70.222473%)" offset="0.414062"/><stop stop-opacity="1" stop-color="rgb(45.411682%, 39.408875%, 70.133972%)" offset="0.421875"/><stop stop-opacity="1" stop-color="rgb(45.043945%, 39.222717%, 70.045471%)" offset="0.429688"/><stop stop-opacity="1" stop-color="rgb(44.676208%, 39.03656%, 69.955444%)" offset="0.4375"/><stop stop-opacity="1" stop-color="rgb(44.308472%, 38.848877%, 69.866943%)" offset="0.445312"/><stop stop-opacity="1" stop-color="rgb(43.940735%, 38.66272%, 69.778442%)" offset="0.453125"/><stop stop-opacity="1" stop-color="rgb(43.572998%, 38.476562%, 69.688416%)" offset="0.460938"/><stop stop-opacity="1" stop-color="rgb(43.203735%, 38.288879%, 69.599915%)" offset="0.46875"/><stop stop-opacity="1" stop-color="rgb(42.835999%, 38.102722%, 69.511414%)" offset="0.476562"/><stop stop-opacity="1" stop-color="rgb(42.468262%, 37.915039%, 69.421387%)" offset="0.484375"/><stop stop-opacity="1" stop-color="rgb(42.100525%, 37.728882%, 69.332886%)" offset="0.492188"/><stop stop-opacity="1" stop-color="rgb(41.732788%, 37.542725%, 69.242859%)" offset="0.5"/><stop stop-opacity="1" stop-color="rgb(41.365051%, 37.355042%, 69.154358%)" offset="0.507812"/><stop stop-opacity="1" stop-color="rgb(40.997314%, 37.168884%, 69.065857%)" offset="0.515625"/><stop stop-opacity="1" stop-color="rgb(40.628052%, 36.982727%, 68.97583%)" offset="0.523437"/><stop stop-opacity="1" stop-color="rgb(40.260315%, 36.795044%, 68.887329%)" offset="0.53125"/><stop stop-opacity="1" stop-color="rgb(39.892578%, 36.608887%, 68.798828%)" offset="0.539062"/><stop stop-opacity="1" stop-color="rgb(39.524841%, 36.422729%, 68.708801%)" offset="0.546875"/><stop stop-opacity="1" stop-color="rgb(39.157104%, 36.235046%, 68.6203%)" offset="0.554687"/><stop stop-opacity="1" stop-color="rgb(38.789368%, 36.048889%, 68.530273%)" offset="0.5625"/><stop stop-opacity="1" stop-color="rgb(38.420105%, 35.861206%, 68.441772%)" offset="0.570312"/><stop stop-opacity="1" stop-color="rgb(38.052368%, 35.675049%, 68.353271%)" offset="0.578125"/><stop stop-opacity="1" stop-color="rgb(37.684631%, 35.488892%, 68.263245%)" offset="0.585937"/><stop stop-opacity="1" stop-color="rgb(37.316895%, 35.301208%, 68.174744%)" offset="0.59375"/><stop stop-opacity="1" stop-color="rgb(36.949158%, 35.115051%, 68.086243%)" offset="0.601562"/><stop stop-opacity="1" stop-color="rgb(36.581421%, 34.928894%, 67.996216%)" offset="0.609375"/><stop stop-opacity="1" stop-color="rgb(36.213684%, 34.741211%, 67.907715%)" offset="0.617187"/><stop stop-opacity="1" stop-color="rgb(35.844421%, 34.555054%, 67.819214%)" offset="0.625"/><stop stop-opacity="1" stop-color="rgb(35.476685%, 34.367371%, 67.729187%)" offset="0.632812"/><stop stop-opacity="1" stop-color="rgb(35.108948%, 34.181213%, 67.640686%)" offset="0.640625"/><stop stop-opacity="1" stop-color="rgb(34.741211%, 33.995056%, 67.550659%)" offset="0.648437"/><stop stop-opacity="1" stop-color="rgb(34.373474%, 33.807373%, 67.462158%)" offset="0.65625"/><stop stop-opacity="1" stop-color="rgb(34.005737%, 33.621216%, 67.373657%)" offset="0.664062"/><stop stop-opacity="1" stop-color="rgb(33.638%, 33.435059%, 67.28363%)" offset="0.671875"/><stop stop-opacity="1" stop-color="rgb(33.268738%, 33.247375%, 67.195129%)" offset="0.679687"/><stop stop-opacity="1" stop-color="rgb(32.901001%, 33.061218%, 67.106628%)" offset="0.6875"/><stop stop-opacity="1" stop-color="rgb(32.533264%, 32.875061%, 67.016602%)" offset="0.695312"/><stop stop-opacity="1" stop-color="rgb(32.165527%, 32.687378%, 66.928101%)" offset="0.703125"/><stop stop-opacity="1" stop-color="rgb(31.797791%, 32.501221%, 66.838074%)" offset="0.710937"/><stop stop-opacity="1" stop-color="rgb(31.430054%, 32.313538%, 66.749573%)" offset="0.71875"/><stop stop-opacity="1" stop-color="rgb(31.060791%, 32.12738%, 66.661072%)" offset="0.726562"/><stop stop-opacity="1" stop-color="rgb(30.693054%, 31.941223%, 66.571045%)" offset="0.734375"/><stop stop-opacity="1" stop-color="rgb(30.325317%, 31.75354%, 66.482544%)" offset="0.742187"/><stop stop-opacity="1" stop-color="rgb(29.957581%, 31.567383%, 66.394043%)" offset="0.75"/><stop stop-opacity="1" stop-color="rgb(29.589844%, 31.381226%, 66.304016%)" offset="0.757812"/><stop stop-opacity="1" stop-color="rgb(29.222107%, 31.193542%, 66.215515%)" offset="0.765625"/><stop stop-opacity="1" stop-color="rgb(28.85437%, 31.007385%, 66.127014%)" offset="0.773438"/><stop stop-opacity="1" stop-color="rgb(28.485107%, 30.819702%, 66.036987%)" offset="0.78125"/><stop stop-opacity="1" stop-color="rgb(28.117371%, 30.633545%, 65.948486%)" offset="0.789062"/><stop stop-opacity="1" stop-color="rgb(27.749634%, 30.447388%, 65.858459%)" offset="0.796875"/><stop stop-opacity="1" stop-color="rgb(27.381897%, 30.259705%, 65.769958%)" offset="0.804688"/><stop stop-opacity="1" stop-color="rgb(27.01416%, 30.073547%, 65.681458%)" offset="0.8125"/><stop stop-opacity="1" stop-color="rgb(26.646423%, 29.88739%, 65.591431%)" offset="0.820312"/><stop stop-opacity="1" stop-color="rgb(26.277161%, 29.699707%, 65.50293%)" offset="0.828125"/><stop stop-opacity="1" stop-color="rgb(25.909424%, 29.51355%, 65.414429%)" offset="0.835938"/><stop stop-opacity="1" stop-color="rgb(25.541687%, 29.327393%, 65.324402%)" offset="0.84375"/><stop stop-opacity="1" stop-color="rgb(25.17395%, 29.139709%, 65.235901%)" offset="0.851562"/><stop stop-opacity="1" stop-color="rgb(24.806213%, 28.953552%, 65.145874%)" offset="0.859375"/><stop stop-opacity="1" stop-color="rgb(24.438477%, 28.765869%, 65.057373%)" offset="0.867188"/><stop stop-opacity="1" stop-color="rgb(24.07074%, 28.579712%, 64.968872%)" offset="0.875"/><stop stop-opacity="1" stop-color="rgb(23.701477%, 28.393555%, 64.878845%)" offset="0.882812"/><stop stop-opacity="1" stop-color="rgb(23.33374%, 28.205872%, 64.790344%)" offset="0.890625"/><stop stop-opacity="1" stop-color="rgb(22.966003%, 28.019714%, 64.701843%)" offset="0.898438"/><stop stop-opacity="1" stop-color="rgb(22.598267%, 27.833557%, 64.611816%)" offset="0.90625"/><stop stop-opacity="1" stop-color="rgb(22.23053%, 27.645874%, 64.523315%)" offset="0.914062"/><stop stop-opacity="1" stop-color="rgb(21.862793%, 27.459717%, 64.434814%)" offset="0.921875"/><stop stop-opacity="1" stop-color="rgb(21.495056%, 27.272034%, 64.344788%)" offset="0.929688"/><stop stop-opacity="1" stop-color="rgb(21.125793%, 27.085876%, 64.256287%)" offset="0.9375"/><stop stop-opacity="1" stop-color="rgb(20.758057%, 26.899719%, 64.16626%)" offset="0.945312"/><stop stop-opacity="1" stop-color="rgb(20.39032%, 26.712036%, 64.077759%)" offset="0.953125"/><stop stop-opacity="1" stop-color="rgb(20.022583%, 26.525879%, 63.989258%)" offset="0.960938"/><stop stop-opacity="1" stop-color="rgb(19.654846%, 26.339722%, 63.899231%)" offset="0.96875"/><stop stop-opacity="1" stop-color="rgb(19.287109%, 26.152039%, 63.81073%)" offset="0.976562"/><stop stop-opacity="1" stop-color="rgb(18.917847%, 25.965881%, 63.722229%)" offset="0.984375"/><stop stop-opacity="1" stop-color="rgb(18.55011%, 25.779724%, 63.632202%)" offset="0.992188"/><stop stop-opacity="1" stop-color="rgb(18.182373%, 25.592041%, 63.543701%)" offset="1"/></linearGradient><clipPath id="c050f73954"><path d="M 0 386 L 926 386 L 926 810 L 0 810 Z M 0 386 " clip-rule="nonzero"/></clipPath><clipPath id="54caf68431"><path d="M -214.472656 302.550781 L 974.402344 503.457031 L 906.476562 905.40625 L -282.398438 704.5 Z M -214.472656 302.550781 " clip-rule="nonzero"/></clipPath><clipPath id="a6e854fe68"><path d="M 456.488281 415.9375 C 469.453125 418.128906 482.492188 420.332031 495.429688 422.515625 C 597.4375 446.632812 658.128906 479.785156 681.335938 521.171875 C 854.101562 545.371094 949.675781 632.363281 879.871094 690.09375 C 902.804688 708.578125 921.253906 728.039062 925.285156 750.652344 C 924.253906 756.761719 923.222656 762.855469 922.191406 768.964844 C 890.269531 819.394531 786.1875 839.527344 627.152344 802.496094 C 581.09375 823.378906 503.140625 836.863281 388.902344 816.027344 C 330.035156 804.199219 290.65625 786.644531 256.789062 767.679688 C 217.015625 771.964844 174.480469 773.417969 115.054688 763.46875 C -22.414062 740.402344 -107.386719 683.636719 -100.0625 626.707031 C -186.183594 598.546875 -241.851562 563.738281 -251.003906 518.726562 C -249.972656 512.621094 -248.9375 506.5 -247.910156 500.417969 C -222.851562 461.582031 -161.816406 444.84375 -65.707031 449.617188 C -59.433594 378.023438 136.5 365.734375 286.074219 423.019531 C 325.539062 413.859375 380.535156 405.890625 456.488281 415.9375 Z M 456.488281 415.9375 " clip-rule="nonzero"/></clipPath><clipPath id="ec5f6f1863"><path d="M 490 378 L 1440 378 L 1440 810 L 490 810 Z M 490 378 " clip-rule="nonzero"/></clipPath><clipPath id="d020755b98"><path d="M 454.136719 514.132812 L 1626.523438 294.90625 L 1700.644531 691.277344 L 528.257812 910.503906 Z M 454.136719 514.132812 " clip-rule="nonzero"/></clipPath><clipPath id="86ebdbc595"><path d="M 1115.796875 390.40625 C 1128.578125 388.019531 1141.4375 385.613281 1154.195312 383.226562 C 1257.132812 370.804688 1324.800781 380.871094 1360.46875 411.375 C 1529.136719 374.878906 1647.5625 423.027344 1602.453125 500.449219 C 1630.054688 509.785156 1653.828125 521.554688 1665.289062 541.175781 C 1666.414062 547.203125 1667.539062 553.210938 1668.664062 559.234375 C 1656.242188 616.949219 1566.476562 671.167969 1406.179688 691.066406 C 1370.542969 726.171875 1302.769531 765.296875 1189.59375 784.941406 C 1130.902344 794.050781 1088.351562 791.191406 1050.429688 785.144531 C 1014.964844 802.695312 975.96875 818.5625 917.402344 829.605469 C 781.894531 855.109375 683.625 831.40625 671 776.046875 C 581.425781 779.292969 517.859375 765.976562 494 727.3125 C 492.875 721.289062 491.746094 715.253906 490.625 709.253906 C 500.636719 664.644531 551.59375 628.273438 642.453125 599.902344 C 623.84375 531.289062 801.566406 453.007812 959.992188 455.144531 C 993.507812 433.171875 1041.84375 407.003906 1115.796875 390.40625 Z M 1115.796875 390.40625 " clip-rule="nonzero"/></clipPath><clipPath id="afae5c9bf9"><path d="M 0 428 L 783 428 L 783 810 L 0 810 Z M 0 428 " clip-rule="nonzero"/></clipPath><clipPath id="e7f233e096"><path d="M -321.136719 323.371094 L 849.648438 611.570312 L 752.210938 1007.398438 L -418.574219 719.199219 Z M -321.136719 323.371094 " clip-rule="nonzero"/></clipPath><clipPath id="0f72394915"><path d="M 339.617188 486.019531 C 352.382812 489.160156 365.222656 492.324219 377.960938 495.457031 C 477.910156 527.046875 535.988281 564.59375 556.070312 607.578125 C 726.578125 644.476562 815.464844 738.292969 741.582031 790.707031 C 763.089844 810.835938 780.050781 831.605469 782.398438 854.457031 C 780.917969 860.472656 779.441406 866.476562 777.960938 872.488281 C 742.402344 920.425781 637.113281 932.8125 481.25 884.132812 C 433.777344 901.554688 355.039062 909.242188 242.652344 880.023438 C 184.820312 863.878906 146.847656 843.460938 114.472656 822.046875 C 74.488281 823.382812 31.964844 821.683594 -26.5625 807.375 C -161.953125 774.210938 -242.5 711.324219 -230.988281 655.089844 C -314.792969 620.644531 -367.738281 581.816406 -373.539062 536.253906 C -372.058594 530.242188 -370.574219 524.210938 -369.101562 518.222656 C -341.238281 481.347656 -279.136719 469.164062 -183.644531 481.023438 C -172.09375 410.089844 24.210938 412.3125 169.144531 480.492188 C 209.179688 474.273438 264.609375 470.386719 339.617188 486.019531 Z M 339.617188 486.019531 " clip-rule="nonzero"/></clipPath><clipPath id="97199c77e5"><path d="M 451 473 L 1440 473 L 1440 810 L 451 810 Z M 451 473 " clip-rule="nonzero"/></clipPath><clipPath id="527a082d5f"><path d="M 414.578125 609.296875 L 1586.964844 390.066406 L 1661.082031 786.4375 L 488.695312 1005.667969 Z M 414.578125 609.296875 " clip-rule="nonzero"/></clipPath><clipPath id="ecdff29698"><path d="M 1076.234375 485.570312 C 1089.015625 483.179688 1101.875 480.777344 1114.632812 478.390625 C 1217.574219 465.964844 1285.242188 476.03125 1320.910156 506.539062 C 1489.578125 470.039062 1608 518.1875 1562.890625 595.613281 C 1590.496094 604.949219 1614.269531 616.71875 1625.726562 636.339844 C 1626.855469 642.363281 1627.976562 648.375 1629.105469 654.398438 C 1616.679688 712.113281 1526.914062 766.332031 1366.617188 786.226562 C 1330.984375 821.332031 1263.210938 860.460938 1150.035156 880.105469 C 1091.339844 889.214844 1048.789062 886.355469 1010.871094 880.304688 C 975.40625 897.859375 936.40625 913.722656 877.839844 924.769531 C 742.332031 950.269531 644.0625 926.566406 631.4375 871.210938 C 541.867188 874.457031 478.300781 861.140625 454.441406 822.472656 C 453.3125 816.449219 452.183594 810.414062 451.0625 804.417969 C 461.078125 759.808594 512.03125 723.4375 602.890625 695.066406 C 584.285156 626.453125 762.003906 548.171875 920.429688 550.308594 C 953.945312 528.335938 1002.285156 502.167969 1076.234375 485.570312 Z M 1076.234375 485.570312 " clip-rule="nonzero"/></clipPath><clipPath id="c7b77870d2"><path d="M 333 535 L 512.589844 535 L 512.589844 734.550781 L 333 734.550781 Z M 333 535 " clip-rule="nonzero"/></clipPath><clipPath id="a259cf369e"><path d="M 0 594 L 878 594 L 878 810 L 0 810 Z M 0 594 " clip-rule="nonzero"/></clipPath><clipPath id="fc8882bd2b"><path d="M -262.351562 509.960938 L 926.527344 710.867188 L 858.601562 1112.8125 L -330.273438 911.90625 Z M -262.351562 509.960938 " clip-rule="nonzero"/></clipPath><clipPath id="7c6a5f6875"><path d="M 408.613281 623.34375 C 421.574219 625.535156 434.613281 627.738281 447.550781 629.925781 C 549.558594 654.039062 610.253906 687.191406 633.457031 728.578125 C 806.226562 752.777344 901.796875 839.769531 831.992188 897.5 C 854.925781 915.984375 873.378906 935.445312 877.40625 958.058594 C 876.375 964.167969 875.347656 970.261719 874.3125 976.371094 C 842.394531 1026.800781 738.308594 1046.933594 579.273438 1009.902344 C 533.21875 1030.785156 455.261719 1044.269531 341.027344 1023.4375 C 282.160156 1011.605469 242.78125 994.050781 208.910156 975.085938 C 169.136719 979.375 126.601562 980.824219 67.179688 970.875 C -70.289062 947.808594 -155.265625 891.042969 -147.9375 834.113281 C -234.058594 805.953125 -289.730469 771.144531 -298.882812 726.136719 C -297.851562 720.027344 -296.816406 713.90625 -295.789062 707.824219 C -270.726562 668.988281 -209.691406 652.25 -113.585938 657.023438 C -107.308594 585.429688 88.621094 573.140625 238.199219 630.425781 C 277.664062 621.269531 332.65625 613.296875 408.613281 623.34375 Z M 408.613281 623.34375 " clip-rule="nonzero"/></clipPath><clipPath id="4e4237d3fd"><path d="M 617 523 L 1440 523 L 1440 810 L 617 810 Z M 617 523 " clip-rule="nonzero"/></clipPath><clipPath id="61193999eb"><path d="M 580.902344 659.195312 L 1753.289062 439.964844 L 1827.40625 836.335938 L 655.019531 1055.566406 Z M 580.902344 659.195312 " clip-rule="nonzero"/></clipPath><clipPath id="ff933b5707"><path d="M 1242.558594 535.46875 C 1255.34375 533.078125 1268.203125 530.671875 1280.957031 528.289062 C 1383.898438 515.863281 1451.566406 525.929688 1487.234375 556.433594 C 1655.902344 519.9375 1774.328125 568.085938 1729.21875 645.511719 C 1756.820312 654.84375 1780.59375 666.617188 1792.054688 686.238281 C 1793.179688 692.261719 1794.304688 698.269531 1795.429688 704.292969 C 1783.003906 762.011719 1693.238281 816.226562 1532.945312 836.125 C 1497.308594 871.230469 1429.535156 910.359375 1316.359375 930.003906 C 1257.667969 939.109375 1215.113281 936.253906 1177.195312 930.203125 C 1141.730469 947.757812 1102.730469 963.621094 1044.164062 974.667969 C 908.660156 1000.167969 810.390625 976.464844 797.761719 921.109375 C 708.191406 924.355469 644.625 911.039062 620.765625 872.371094 C 619.640625 866.347656 618.511719 860.3125 617.386719 854.316406 C 627.402344 809.707031 678.355469 773.332031 769.21875 744.964844 C 750.609375 676.351562 928.328125 598.070312 1086.753906 600.207031 C 1120.269531 578.234375 1168.609375 552.0625 1242.558594 535.46875 Z M 1242.558594 535.46875 " clip-rule="nonzero"/></clipPath><clipPath id="8499a0c97e"><path d="M 81 119.253906 L 95.011719 119.253906 L 95.011719 132.609375 L 81 132.609375 Z M 81 119.253906 " clip-rule="nonzero"/></clipPath><clipPath id="ce96b30cf6"><path d="M 88.007812 119.253906 L 89.660156 124.355469 L 95.011719 124.355469 L 90.683594 127.507812 L 92.335938 132.609375 L 88.007812 129.457031 L 83.675781 132.609375 L 85.332031 127.507812 L 81 124.355469 L 86.351562 124.355469 Z M 88.007812 119.253906 " clip-rule="nonzero"/></clipPath><clipPath id="76a49419ed"><path d="M 440.125 252.671875 L 454.136719 252.671875 L 454.136719 266.027344 L 440.125 266.027344 Z M 440.125 252.671875 " clip-rule="nonzero"/></clipPath><clipPath id="0fe54c4efb"><path d="M 447.132812 252.671875 L 448.785156 257.773438 L 454.136719 257.773438 L 449.808594 260.925781 L 451.460938 266.027344 L 447.132812 262.875 L 442.800781 266.027344 L 444.453125 260.925781 L 440.125 257.773438 L 445.476562 257.773438 Z M 447.132812 252.671875 " clip-rule="nonzero"/></clipPath><clipPath id="8b8f43eb70"><path d="M 1151.902344 316.691406 L 1165.914062 316.691406 L 1165.914062 330.046875 L 1151.902344 330.046875 Z M 1151.902344 316.691406 " clip-rule="nonzero"/></clipPath><clipPath id="601f8c09d6"><path d="M 1158.910156 316.691406 L 1160.5625 321.792969 L 1165.914062 321.792969 L 1161.585938 324.945312 L 1163.238281 330.046875 L 1158.910156 326.894531 L 1154.578125 330.046875 L 1156.234375 324.945312 L 1151.902344 321.792969 L 1157.253906 321.792969 Z M 1158.910156 316.691406 " clip-rule="nonzero"/></clipPath><clipPath id="8487427726"><path d="M 720 460.089844 L 734.011719 460.089844 L 734.011719 473.445312 L 720 473.445312 Z M 720 460.089844 " clip-rule="nonzero"/></clipPath><clipPath id="2b42ac2f10"><path d="M 727.007812 460.089844 L 728.660156 465.191406 L 734.011719 465.191406 L 729.683594 468.34375 L 731.335938 473.445312 L 727.007812 470.292969 L 722.675781 473.445312 L 724.332031 468.34375 L 720 465.191406 L 725.351562 465.191406 Z M 727.007812 460.089844 " clip-rule="nonzero"/></clipPath><clipPath id="d036f2fbdf"><path d="M 1344.988281 67.644531 L 1359 67.644531 L 1359 81 L 1344.988281 81 Z M 1344.988281 67.644531 " clip-rule="nonzero"/></clipPath><clipPath id="3f297f3882"><path d="M 1351.992188 67.644531 L 1353.648438 72.746094 L 1359 72.746094 L 1354.667969 75.898438 L 1356.324219 81 L 1351.992188 77.847656 L 1347.664062 81 L 1349.316406 75.898438 L 1344.988281 72.746094 L 1350.339844 72.746094 Z M 1351.992188 67.644531 " clip-rule="nonzero"/></clipPath><clipPath id="41ecc9a8f7"><path d="M 109.089844 446.730469 L 123.101562 446.730469 L 123.101562 460.089844 L 109.089844 460.089844 Z M 109.089844 446.730469 " clip-rule="nonzero"/></clipPath><clipPath id="823d33c618"><path d="M 116.097656 446.730469 L 117.75 451.832031 L 123.101562 451.832031 L 118.773438 454.984375 L 120.425781 460.089844 L 116.097656 456.933594 L 111.765625 460.089844 L 113.417969 454.984375 L 109.089844 451.832031 L 114.441406 451.832031 Z M 116.097656 446.730469 " clip-rule="nonzero"/></clipPath><clipPath id="88db7c0f78"><path d="M 1066.71875 571.449219 L 1080.734375 571.449219 L 1080.734375 584.804688 L 1066.71875 584.804688 Z M 1066.71875 571.449219 " clip-rule="nonzero"/></clipPath><clipPath id="7b1721e9dc"><path d="M 1073.726562 571.449219 L 1075.378906 576.550781 L 1080.734375 576.550781 L 1076.402344 579.703125 L 1078.054688 584.804688 L 1073.726562 581.652344 L 1069.394531 584.804688 L 1071.050781 579.703125 L 1066.71875 576.550781 L 1072.070312 576.550781 Z M 1073.726562 571.449219 " clip-rule="nonzero"/></clipPath><clipPath id="7ace1c0e85"><path d="M 1259 133 L 1432 133 L 1432 305 L 1259 305 Z M 1259 133 " clip-rule="nonzero"/></clipPath><clipPath id="00979da8b0"><path d="M 1248.726562 88.125 L 1504.535156 189.738281 L 1441.128906 349.355469 L 1185.324219 247.742188 Z M 1248.726562 88.125 " clip-rule="nonzero"/></clipPath><clipPath id="96ef163e57"><path d="M 1248.726562 88.125 L 1504.535156 189.738281 L 1441.128906 349.355469 L 1185.324219 247.742188 Z M 1248.726562 88.125 " clip-rule="nonzero"/></clipPath><clipPath id="8e89645129"><path d="M 1279 151 L 1432 151 L 1432 219 L 1279 219 Z M 1279 151 " clip-rule="nonzero"/></clipPath><clipPath id="0e6e5c2b40"><path d="M 1248.726562 88.125 L 1504.535156 189.738281 L 1441.128906 349.355469 L 1185.324219 247.742188 Z M 1248.726562 88.125 " clip-rule="nonzero"/></clipPath><clipPath id="5a3edcca82"><path d="M 1248.726562 88.125 L 1504.535156 189.738281 L 1441.128906 349.355469 L 1185.324219 247.742188 Z M 1248.726562 88.125 " clip-rule="nonzero"/></clipPath><clipPath id="11ddf21f8f"><path d="M 1268 257 L 1374 257 L 1374 305 L 1268 305 Z M 1268 257 " clip-rule="nonzero"/></clipPath><clipPath id="a7df8cecfb"><path d="M 1248.726562 88.125 L 1504.535156 189.738281 L 1441.128906 349.355469 L 1185.324219 247.742188 Z M 1248.726562 88.125 " clip-rule="nonzero"/></clipPath><clipPath id="2b6467d94b"><path d="M 1248.726562 88.125 L 1504.535156 189.738281 L 1441.128906 349.355469 L 1185.324219 247.742188 Z M 1248.726562 88.125 " clip-rule="nonzero"/></clipPath><clipPath id="bf28a5e7f3"><path d="M 1259 202 L 1422 202 L 1422 282 L 1259 282 Z M 1259 202 " clip-rule="nonzero"/></clipPath><clipPath id="d1fb7a5adb"><path d="M 1248.726562 88.125 L 1504.535156 189.738281 L 1441.128906 349.355469 L 1185.324219 247.742188 Z M 1248.726562 88.125 " clip-rule="nonzero"/></clipPath><clipPath id="8274a9d5d5"><path d="M 1248.726562 88.125 L 1504.535156 189.738281 L 1441.128906 349.355469 L 1185.324219 247.742188 Z M 1248.726562 88.125 " clip-rule="nonzero"/></clipPath><clipPath id="0632cc0f30"><path d="M 1273 158 L 1432 158 L 1432 233 L 1273 233 Z M 1273 158 " clip-rule="nonzero"/></clipPath><clipPath id="292d8c5a90"><path d="M 1248.726562 88.125 L 1504.535156 189.738281 L 1441.128906 349.355469 L 1185.324219 247.742188 Z M 1248.726562 88.125 " clip-rule="nonzero"/></clipPath><clipPath id="dba57a1f6f"><path d="M 1248.726562 88.125 L 1504.535156 189.738281 L 1441.128906 349.355469 L 1185.324219 247.742188 Z M 1248.726562 88.125 " clip-rule="nonzero"/></clipPath><clipPath id="0b9325e340"><path d="M 1300 136 L 1423 136 L 1423 181 L 1300 181 Z M 1300 136 " clip-rule="nonzero"/></clipPath><clipPath id="6822f4a9e1"><path d="M 1248.726562 88.125 L 1504.535156 189.738281 L 1441.128906 349.355469 L 1185.324219 247.742188 Z M 1248.726562 88.125 " clip-rule="nonzero"/></clipPath><clipPath id="f21409b341"><path d="M 1248.726562 88.125 L 1504.535156 189.738281 L 1441.128906 349.355469 L 1185.324219 247.742188 Z M 1248.726562 88.125 " clip-rule="nonzero"/></clipPath><clipPath id="131157aa6e"><path d="M 1237 175 L 1272 175 L 1272 222 L 1237 222 Z M 1237 175 " clip-rule="nonzero"/></clipPath><clipPath id="a191972cce"><path d="M 1248.726562 88.125 L 1504.535156 189.738281 L 1441.128906 349.355469 L 1185.324219 247.742188 Z M 1248.726562 88.125 " clip-rule="nonzero"/></clipPath><clipPath id="6fbff6acbd"><path d="M 1248.726562 88.125 L 1504.535156 189.738281 L 1441.128906 349.355469 L 1185.324219 247.742188 Z M 1248.726562 88.125 " clip-rule="nonzero"/></clipPath><clipPath id="d70e40bac9"><path d="M 1406 238 L 1440 238 L 1440 281 L 1406 281 Z M 1406 238 " clip-rule="nonzero"/></clipPath><clipPath id="98fdd2fd89"><path d="M 1248.726562 88.125 L 1504.535156 189.738281 L 1441.128906 349.355469 L 1185.324219 247.742188 Z M 1248.726562 88.125 " clip-rule="nonzero"/></clipPath><clipPath id="99a74378c5"><path d="M 1248.726562 88.125 L 1504.535156 189.738281 L 1441.128906 349.355469 L 1185.324219 247.742188 Z M 1248.726562 88.125 " clip-rule="nonzero"/></clipPath><clipPath id="3f6c1840a8"><path d="M 1259 211 L 1413 211 L 1413 280 L 1259 280 Z M 1259 211 " clip-rule="nonzero"/></clipPath><clipPath id="fda080f98d"><path d="M 1248.726562 88.125 L 1504.535156 189.738281 L 1441.128906 349.355469 L 1185.324219 247.742188 Z M 1248.726562 88.125 " clip-rule="nonzero"/></clipPath><clipPath id="21395349ce"><path d="M 1248.726562 88.125 L 1504.535156 189.738281 L 1441.128906 349.355469 L 1185.324219 247.742188 Z M 1248.726562 88.125 " clip-rule="nonzero"/></clipPath><clipPath id="df36a39e2d"><path d="M 1211 164 L 1278 164 L 1278 244 L 1211 244 Z M 1211 164 " clip-rule="nonzero"/></clipPath><clipPath id="035ad68f72"><path d="M 1248.726562 88.125 L 1504.535156 189.738281 L 1441.128906 349.355469 L 1185.324219 247.742188 Z M 1248.726562 88.125 " clip-rule="nonzero"/></clipPath><clipPath id="cef213e4f3"><path d="M 1248.726562 88.125 L 1504.535156 189.738281 L 1441.128906 349.355469 L 1185.324219 247.742188 Z M 1248.726562 88.125 " clip-rule="nonzero"/></clipPath><clipPath id="38dbaecd05"><path d="M 1388 227 L 1440 227 L 1440 298 L 1388 298 Z M 1388 227 " clip-rule="nonzero"/></clipPath><clipPath id="0120ffc807"><path d="M 1248.726562 88.125 L 1504.535156 189.738281 L 1441.128906 349.355469 L 1185.324219 247.742188 Z M 1248.726562 88.125 " clip-rule="nonzero"/></clipPath><clipPath id="818121f2fd"><path d="M 1248.726562 88.125 L 1504.535156 189.738281 L 1441.128906 349.355469 L 1185.324219 247.742188 Z M 1248.726562 88.125 " clip-rule="nonzero"/></clipPath><clipPath id="c11dc26af6"><path d="M 1259 228 L 1401 228 L 1401 294 L 1259 294 Z M 1259 228 " clip-rule="nonzero"/></clipPath><clipPath id="d34b53f3fa"><path d="M 1248.726562 88.125 L 1504.535156 189.738281 L 1441.128906 349.355469 L 1185.324219 247.742188 Z M 1248.726562 88.125 " clip-rule="nonzero"/></clipPath><clipPath id="695aa2d562"><path d="M 1248.726562 88.125 L 1504.535156 189.738281 L 1441.128906 349.355469 L 1185.324219 247.742188 Z M 1248.726562 88.125 " clip-rule="nonzero"/></clipPath><clipPath id="19ef6cee1f"><path d="M 630.800781 31.269531 L 644.8125 31.269531 L 644.8125 44.625 L 630.800781 44.625 Z M 630.800781 31.269531 " clip-rule="nonzero"/></clipPath><clipPath id="91eb6d1d0d"><path d="M 637.804688 31.269531 L 639.460938 36.371094 L 644.8125 36.371094 L 640.484375 39.523438 L 642.136719 44.625 L 637.804688 41.472656 L 633.476562 44.625 L 635.128906 39.523438 L 630.800781 36.371094 L 636.152344 36.371094 Z M 637.804688 31.269531 " clip-rule="nonzero"/></clipPath></defs><rect x="-144" width="1728" fill="#ffffff" y="-80.999999" height="971.999992" fill-opacity="1"/><rect x="-144" fill="url(#df038aa42e)" width="1728" y="-80.999999" height="971.999992"/><g clip-path="url(#c050f73954)"><g clip-path="url(#54caf68431)"><g clip-path="url(#a6e854fe68)"><path fill="#9983c2" d="M -214.472656 302.550781 L 967.261719 502.25 L 899.601562 902.632812 L -282.132812 702.933594 Z M -214.472656 302.550781 " fill-opacity="1" fill-rule="nonzero"/></g></g></g><g clip-path="url(#ec5f6f1863)"><g clip-path="url(#d020755b98)"><g clip-path="url(#86ebdbc595)"><path fill="#9983c2" d="M 454.136719 514.132812 L 1619.484375 296.222656 L 1693.3125 691.050781 L 527.96875 908.960938 Z M 454.136719 514.132812 " fill-opacity="1" fill-rule="nonzero"/></g></g></g><g clip-path="url(#afae5c9bf9)"><g clip-path="url(#e7f233e096)"><g clip-path="url(#0f72394915)"><path fill="#e2dfe6" d="M -321.136719 323.371094 L 842.613281 609.835938 L 745.558594 1004.125 L -418.195312 717.65625 Z M -321.136719 323.371094 " fill-opacity="1" fill-rule="nonzero"/></g></g></g><g clip-path="url(#97199c77e5)"><g clip-path="url(#527a082d5f)"><g clip-path="url(#ecdff29698)"><path fill="#e2dfe6" d="M 414.578125 609.296875 L 1579.921875 391.382812 L 1653.753906 786.214844 L 488.40625 1004.125 Z M 414.578125 609.296875 " fill-opacity="1" fill-rule="nonzero"/></g></g></g><path fill="#e25152" d="M 295.367188 400.742188 C 293.539062 399.050781 358.5625 406.050781 391.734375 447.445312 C 424.90625 488.84375 432.910156 531.632812 432.910156 531.632812 C 432.910156 531.632812 394.296875 503.953125 362.902344 517.109375 C 362.851562 517.109375 328.75 431.941406 295.367188 400.742188 Z M 295.367188 400.742188 " fill-opacity="1" fill-rule="nonzero"/><path fill="#e25152" d="M 206.367188 480.550781 C 206.367188 480.550781 184.195312 570.519531 318.421875 632.035156 C 318.421875 632.035156 295.203125 578.253906 314.46875 561.15625 C 314.46875 561.15625 260.878906 527.914062 240.96875 510.953125 C 221.058594 493.992188 206.367188 480.550781 206.367188 480.550781 Z M 206.367188 480.550781 " fill-opacity="1" fill-rule="nonzero"/><path fill="#dcdcdc" d="M 330.847656 570.65625 C 330.847656 570.65625 109.625 471.621094 138.558594 306.28125 C 138.558594 306.28125 287.824219 302.550781 373.277344 533.027344 Z M 330.847656 570.65625 " fill-opacity="1" fill-rule="nonzero"/><path fill="#6c364a" d="M 313.460938 562.085938 L 366.542969 515.59375 C 366.542969 515.59375 376.882812 530.515625 372.757812 533.972656 C 369.910156 536.382812 330.316406 571.601562 330.316406 571.601562 Z M 313.460938 562.085938 " fill-opacity="1" fill-rule="nonzero"/><path fill="#e25152" d="M 139.34375 369.554688 C 139.34375 369.554688 130.929688 334 138.449219 304.378906 C 138.449219 304.378906 167.15625 307.613281 194.683594 318.964844 Z M 139.34375 369.554688 " fill-opacity="1" fill-rule="nonzero"/><g clip-path="url(#c7b77870d2)"><path fill="#f26522" d="M 333.148438 568.753906 C 333.148438 568.753906 414.675781 702.097656 512.140625 734.5625 C 512.140625 734.5625 472.804688 600.660156 370.84375 535.339844 Z M 333.148438 568.753906 " fill-opacity="1" fill-rule="nonzero"/></g><path fill="#fcb22c" d="M 338.453125 564.050781 C 338.453125 564.050781 361.582031 604.242188 451.03125 665.5625 C 451.03125 665.5625 417.773438 582.132812 365.273438 540.289062 Z M 338.453125 564.050781 " fill-opacity="1" fill-rule="nonzero"/><path fill="#feeb81" d="M 341.351562 561.640625 C 341.351562 561.640625 364.378906 585.105469 379.007812 584.273438 C 379.007812 584.273438 380.488281 560.148438 362.429688 542.761719 Z M 341.351562 561.640625 " fill-opacity="1" fill-rule="nonzero"/><path fill="#6c364a" d="M 253.65625 404.035156 C 253.65625 405.191406 253.601562 406.34375 253.488281 407.492188 C 253.375 408.640625 253.207031 409.78125 252.980469 410.914062 C 252.753906 412.046875 252.472656 413.167969 252.140625 414.273438 C 251.804688 415.378906 251.414062 416.464844 250.972656 417.53125 C 250.53125 418.597656 250.039062 419.640625 249.496094 420.660156 C 248.949219 421.679688 248.359375 422.667969 247.71875 423.628906 C 247.074219 424.589844 246.390625 425.515625 245.65625 426.410156 C 244.925781 427.300781 244.148438 428.15625 243.332031 428.972656 C 242.515625 429.789062 241.664062 430.5625 240.769531 431.296875 C 239.878906 432.03125 238.953125 432.71875 237.992188 433.359375 C 237.03125 434 236.042969 434.59375 235.027344 435.136719 C 234.007812 435.683594 232.964844 436.175781 231.898438 436.617188 C 230.832031 437.058594 229.746094 437.449219 228.640625 437.785156 C 227.539062 438.117188 226.417969 438.398438 225.285156 438.625 C 224.15625 438.851562 223.015625 439.019531 221.867188 439.132812 C 220.714844 439.246094 219.566406 439.300781 218.410156 439.300781 C 217.257812 439.300781 216.105469 439.246094 214.957031 439.132812 C 213.808594 439.019531 212.667969 438.851562 211.535156 438.625 C 210.402344 438.398438 209.285156 438.117188 208.179688 437.785156 C 207.074219 437.449219 205.988281 437.058594 204.921875 436.617188 C 203.855469 436.175781 202.8125 435.683594 201.796875 435.136719 C 200.777344 434.59375 199.789062 434 198.828125 433.359375 C 197.867188 432.71875 196.941406 432.03125 196.050781 431.296875 C 195.160156 430.5625 194.304688 429.789062 193.488281 428.972656 C 192.671875 428.15625 191.898438 427.300781 191.164062 426.410156 C 190.433594 425.515625 189.746094 424.589844 189.105469 423.628906 C 188.464844 422.667969 187.871094 421.679688 187.328125 420.660156 C 186.78125 419.640625 186.289062 418.597656 185.847656 417.53125 C 185.40625 416.464844 185.015625 415.378906 184.683594 414.273438 C 184.347656 413.167969 184.066406 412.046875 183.839844 410.914062 C 183.617188 409.78125 183.445312 408.640625 183.335938 407.492188 C 183.222656 406.34375 183.164062 405.191406 183.164062 404.035156 C 183.164062 402.878906 183.222656 401.726562 183.335938 400.578125 C 183.445312 399.429688 183.617188 398.289062 183.839844 397.15625 C 184.066406 396.023438 184.347656 394.902344 184.683594 393.796875 C 185.015625 392.691406 185.40625 391.605469 185.847656 390.539062 C 186.289062 389.472656 186.78125 388.429688 187.328125 387.410156 C 187.871094 386.394531 188.464844 385.402344 189.105469 384.441406 C 189.746094 383.480469 190.433594 382.554688 191.164062 381.664062 C 191.898438 380.769531 192.671875 379.914062 193.488281 379.097656 C 194.304688 378.28125 195.160156 377.507812 196.050781 376.773438 C 196.941406 376.042969 197.867188 375.355469 198.828125 374.710938 C 199.789062 374.070312 200.777344 373.476562 201.796875 372.933594 C 202.8125 372.390625 203.855469 371.894531 204.921875 371.453125 C 205.988281 371.011719 207.074219 370.625 208.179688 370.289062 C 209.285156 369.953125 210.402344 369.671875 211.535156 369.445312 C 212.667969 369.222656 213.808594 369.050781 214.957031 368.9375 C 216.105469 368.824219 217.257812 368.769531 218.410156 368.769531 C 219.566406 368.769531 220.714844 368.824219 221.867188 368.9375 C 223.015625 369.050781 224.15625 369.222656 225.285156 369.445312 C 226.417969 369.671875 227.539062 369.953125 228.640625 370.289062 C 229.746094 370.625 230.832031 371.011719 231.898438 371.453125 C 232.964844 371.894531 234.007812 372.390625 235.027344 372.933594 C 236.042969 373.476562 237.03125 374.070312 237.992188 374.710938 C 238.953125 375.355469 239.878906 376.042969 240.769531 376.773438 C 241.664062 377.507812 242.515625 378.28125 243.332031 379.097656 C 244.148438 379.914062 244.925781 380.769531 245.65625 381.664062 C 246.390625 382.554688 247.074219 383.480469 247.71875 384.441406 C 248.359375 385.402344 248.949219 386.394531 249.496094 387.410156 C 250.039062 388.429688 250.53125 389.472656 250.972656 390.539062 C 251.414062 391.605469 251.804688 392.691406 252.140625 393.796875 C 252.472656 394.902344 252.753906 396.023438 252.980469 397.15625 C 253.207031 398.289062 253.375 399.429688 253.488281 400.578125 C 253.601562 401.726562 253.65625 402.878906 253.65625 404.035156 Z M 253.65625 404.035156 " fill-opacity="1" fill-rule="nonzero"/><path fill="#7fd0db" d="M 239.132812 385.621094 C 239.695312 386.253906 240.222656 386.914062 240.714844 387.601562 C 241.210938 388.289062 241.667969 389 242.089844 389.738281 C 242.511719 390.472656 242.894531 391.230469 243.238281 392.007812 C 243.585938 392.78125 243.890625 393.574219 244.15625 394.386719 C 244.421875 395.195312 244.648438 396.015625 244.832031 396.851562 C 245.015625 397.6875 245.15625 398.53125 245.253906 399.382812 C 245.355469 400.234375 245.410156 401.09375 245.425781 401.953125 C 245.441406 402.816406 245.414062 403.675781 245.34375 404.539062 C 245.273438 405.402344 245.160156 406.261719 245.003906 407.117188 C 244.851562 407.972656 244.65625 408.816406 244.417969 409.65625 C 244.179688 410.496094 243.902344 411.324219 243.585938 412.140625 C 243.265625 412.953125 242.910156 413.753906 242.511719 414.539062 C 242.117188 415.320312 241.683594 416.085938 241.214844 416.832031 C 240.746094 417.574219 240.242188 418.296875 239.703125 418.996094 C 239.164062 419.691406 238.59375 420.363281 237.992188 421.011719 C 237.390625 421.65625 236.757812 422.269531 236.097656 422.855469 C 235.4375 423.441406 234.75 423.996094 234.039062 424.515625 C 233.324219 425.039062 232.589844 425.523438 231.832031 425.976562 C 231.074219 426.425781 230.300781 426.839844 229.503906 427.21875 C 228.707031 427.59375 227.898438 427.929688 227.074219 428.230469 C 226.246094 428.527344 225.410156 428.789062 224.5625 429.003906 C 223.71875 429.222656 222.863281 429.398438 222 429.535156 C 221.140625 429.671875 220.277344 429.761719 219.410156 429.8125 C 218.542969 429.863281 217.675781 429.875 216.8125 429.839844 C 215.949219 429.804688 215.089844 429.730469 214.238281 429.613281 C 213.382812 429.492188 212.539062 429.335938 211.707031 429.132812 C 210.875 428.929688 210.054688 428.691406 209.246094 428.40625 C 208.441406 428.125 207.652344 427.800781 206.878906 427.441406 C 206.109375 427.078125 205.359375 426.679688 204.628906 426.246094 C 203.902344 425.808594 203.195312 425.335938 202.515625 424.828125 C 201.835938 424.324219 201.1875 423.78125 200.5625 423.210938 C 199.941406 422.636719 199.347656 422.03125 198.785156 421.398438 C 198.226562 420.765625 197.695312 420.105469 197.203125 419.417969 C 196.710938 418.726562 196.25 418.015625 195.832031 417.28125 C 195.410156 416.542969 195.023438 415.789062 194.679688 415.011719 C 194.335938 414.234375 194.027344 413.441406 193.761719 412.632812 C 193.496094 411.824219 193.273438 411 193.089844 410.167969 C 192.90625 409.332031 192.765625 408.488281 192.664062 407.636719 C 192.566406 406.78125 192.507812 405.925781 192.492188 405.0625 C 192.476562 404.203125 192.507812 403.339844 192.578125 402.476562 C 192.648438 401.617188 192.757812 400.757812 192.914062 399.902344 C 193.070312 399.046875 193.265625 398.199219 193.503906 397.359375 C 193.738281 396.523438 194.019531 395.695312 194.335938 394.878906 C 194.652344 394.0625 195.011719 393.265625 195.40625 392.480469 C 195.800781 391.695312 196.234375 390.933594 196.703125 390.1875 C 197.171875 389.441406 197.675781 388.722656 198.214844 388.023438 C 198.753906 387.324219 199.324219 386.652344 199.925781 386.007812 C 200.53125 385.363281 201.160156 384.746094 201.820312 384.160156 C 202.484375 383.574219 203.167969 383.023438 203.882812 382.5 C 204.59375 381.980469 205.328125 381.492188 206.085938 381.042969 C 206.84375 380.59375 207.621094 380.179688 208.417969 379.800781 C 209.210938 379.425781 210.023438 379.085938 210.847656 378.789062 C 211.671875 378.488281 212.507812 378.230469 213.355469 378.011719 C 214.203125 377.792969 215.058594 377.617188 215.917969 377.484375 C 216.78125 377.347656 217.644531 377.253906 218.511719 377.203125 C 219.378906 377.152344 220.242188 377.144531 221.105469 377.179688 C 221.972656 377.210938 222.828125 377.289062 223.683594 377.40625 C 224.535156 377.523438 225.378906 377.683594 226.210938 377.886719 C 227.046875 378.085938 227.867188 378.328125 228.671875 378.609375 C 229.480469 378.894531 230.269531 379.214844 231.039062 379.578125 C 231.8125 379.9375 232.5625 380.335938 233.289062 380.773438 C 234.019531 381.210938 234.722656 381.679688 235.402344 382.1875 C 236.082031 382.695312 236.734375 383.234375 237.355469 383.808594 C 237.980469 384.382812 238.574219 384.984375 239.132812 385.621094 Z M 239.132812 385.621094 " fill-opacity="1" fill-rule="nonzero"/><g clip-path="url(#a259cf369e)"><g clip-path="url(#fc8882bd2b)"><g clip-path="url(#7c6a5f6875)"><path fill="#ffffff" d="M -262.351562 509.960938 L 919.386719 709.660156 L 851.726562 1110.042969 L -330.011719 910.339844 Z M -262.351562 509.960938 " fill-opacity="1" fill-rule="nonzero"/></g></g></g><g clip-path="url(#4e4237d3fd)"><g clip-path="url(#61193999eb)"><g clip-path="url(#ff933b5707)"><path fill="#ffffff" d="M 580.902344 659.195312 L 1746.25 441.28125 L 1820.078125 836.109375 L 654.734375 1054.023438 Z M 580.902344 659.195312 " fill-opacity="1" fill-rule="nonzero"/></g></g></g><g clip-path="url(#8499a0c97e)"><g clip-path="url(#ce96b30cf6)"><path fill="#ffffff" d="M 81 119.253906 L 95.011719 119.253906 L 95.011719 132.609375 L 81 132.609375 Z M 81 119.253906 " fill-opacity="1" fill-rule="nonzero"/></g></g><g clip-path="url(#76a49419ed)"><g clip-path="url(#0fe54c4efb)"><path fill="#ffffff" d="M 440.125 252.671875 L 454.136719 252.671875 L 454.136719 266.027344 L 440.125 266.027344 Z M 440.125 252.671875 " fill-opacity="1" fill-rule="nonzero"/></g></g><g clip-path="url(#8b8f43eb70)"><g clip-path="url(#601f8c09d6)"><path fill="#ffffff" d="M 1151.902344 316.691406 L 1165.914062 316.691406 L 1165.914062 330.046875 L 1151.902344 330.046875 Z M 1151.902344 316.691406 " fill-opacity="1" fill-rule="nonzero"/></g></g><g clip-path="url(#8487427726)"><g clip-path="url(#2b42ac2f10)"><path fill="#ffffff" d="M 720 460.089844 L 734.011719 460.089844 L 734.011719 473.445312 L 720 473.445312 Z M 720 460.089844 " fill-opacity="1" fill-rule="nonzero"/></g></g><g clip-path="url(#d036f2fbdf)"><g clip-path="url(#3f297f3882)"><path fill="#ffffff" d="M 1344.988281 67.644531 L 1359 67.644531 L 1359 81 L 1344.988281 81 Z M 1344.988281 67.644531 " fill-opacity="1" fill-rule="nonzero"/></g></g><g clip-path="url(#41ecc9a8f7)"><g clip-path="url(#823d33c618)"><path fill="#ffffff" d="M 109.089844 446.730469 L 123.101562 446.730469 L 123.101562 460.089844 L 109.089844 460.089844 Z M 109.089844 446.730469 " fill-opacity="1" fill-rule="nonzero"/></g></g><g clip-path="url(#88db7c0f78)"><g clip-path="url(#7b1721e9dc)"><path fill="#ffffff" d="M 1066.71875 571.449219 L 1080.734375 571.449219 L 1080.734375 584.804688 L 1066.71875 584.804688 Z M 1066.71875 571.449219 " fill-opacity="1" fill-rule="nonzero"/></g></g><g clip-path="url(#7ace1c0e85)"><g clip-path="url(#00979da8b0)"><g clip-path="url(#96ef163e57)"><path fill="#a78fd6" d="M 1425.09375 250.574219 C 1424.574219 251.878906 1424.023438 253.171875 1423.441406 254.449219 C 1422.859375 255.730469 1422.246094 256.992188 1421.601562 258.242188 C 1420.957031 259.492188 1420.28125 260.722656 1419.578125 261.9375 C 1418.875 263.15625 1418.140625 264.351562 1417.375 265.53125 C 1416.613281 266.710938 1415.820312 267.871094 1415 269.011719 C 1414.179688 270.152344 1413.332031 271.273438 1412.453125 272.371094 C 1411.578125 273.472656 1410.675781 274.546875 1409.75 275.601562 C 1408.820312 276.65625 1407.867188 277.691406 1406.886719 278.699219 C 1405.910156 279.707031 1404.90625 280.6875 1403.878906 281.648438 C 1402.851562 282.605469 1401.800781 283.539062 1400.726562 284.445312 C 1399.652344 285.355469 1398.558594 286.234375 1397.441406 287.085938 C 1396.328125 287.941406 1395.191406 288.765625 1394.03125 289.5625 C 1392.875 290.363281 1391.699219 291.132812 1390.503906 291.871094 C 1389.3125 292.609375 1388.097656 293.320312 1386.867188 294 C 1385.640625 294.683594 1384.394531 295.332031 1383.132812 295.949219 C 1381.871094 296.570312 1380.59375 297.15625 1379.304688 297.714844 C 1378.015625 298.273438 1376.710938 298.796875 1375.394531 299.289062 C 1374.078125 299.78125 1372.75 300.242188 1371.414062 300.667969 C 1370.074219 301.097656 1368.726562 301.492188 1367.367188 301.851562 C 1366.011719 302.214844 1364.644531 302.542969 1363.269531 302.835938 C 1361.898438 303.128906 1360.515625 303.390625 1359.128906 303.617188 C 1357.742188 303.84375 1356.351562 304.035156 1354.957031 304.191406 C 1353.558594 304.351562 1352.160156 304.476562 1350.757812 304.566406 C 1349.355469 304.652344 1347.953125 304.710938 1346.546875 304.730469 C 1345.140625 304.75 1343.738281 304.734375 1342.332031 304.6875 C 1340.925781 304.640625 1339.523438 304.554688 1338.125 304.4375 C 1336.722656 304.320312 1335.328125 304.167969 1333.933594 303.984375 C 1332.542969 303.796875 1331.15625 303.578125 1329.773438 303.324219 C 1328.390625 303.070312 1327.015625 302.78125 1325.644531 302.460938 C 1324.277344 302.140625 1322.917969 301.785156 1321.570312 301.394531 C 1320.21875 301.007812 1318.878906 300.585938 1317.546875 300.132812 C 1316.21875 299.679688 1314.902344 299.191406 1313.59375 298.671875 C 1312.289062 298.152344 1310.996094 297.605469 1309.71875 297.023438 C 1308.4375 296.441406 1307.175781 295.824219 1305.925781 295.183594 C 1304.675781 294.539062 1303.445312 293.863281 1302.230469 293.160156 C 1301.011719 292.453125 1299.816406 291.71875 1298.636719 290.957031 C 1297.457031 290.191406 1296.296875 289.398438 1295.15625 288.578125 C 1294.015625 287.757812 1292.894531 286.910156 1291.796875 286.035156 C 1290.695312 285.160156 1289.621094 284.257812 1288.566406 283.328125 C 1287.511719 282.402344 1286.480469 281.449219 1285.46875 280.46875 C 1284.460938 279.488281 1283.480469 278.484375 1282.519531 277.457031 C 1281.5625 276.429688 1280.628906 275.382812 1279.722656 274.308594 C 1278.8125 273.234375 1277.933594 272.140625 1277.082031 271.023438 C 1276.226562 269.90625 1275.402344 268.769531 1274.601562 267.613281 C 1273.804688 266.457031 1273.035156 265.28125 1272.296875 264.085938 C 1271.558594 262.890625 1270.847656 261.679688 1270.164062 260.449219 C 1269.484375 259.21875 1268.835938 257.976562 1268.214844 256.714844 C 1267.597656 255.453125 1267.007812 254.175781 1266.453125 252.886719 C 1265.898438 251.597656 1265.371094 250.292969 1264.878906 248.976562 C 1264.386719 247.660156 1263.925781 246.332031 1263.5 244.996094 C 1263.070312 243.65625 1262.675781 242.308594 1262.316406 240.949219 C 1261.953125 239.589844 1261.625 238.226562 1261.332031 236.851562 C 1261.039062 235.476562 1260.777344 234.097656 1260.550781 232.710938 C 1260.324219 231.324219 1260.132812 229.933594 1259.972656 228.535156 C 1259.816406 227.140625 1259.691406 225.738281 1259.605469 224.335938 C 1259.515625 222.933594 1259.460938 221.53125 1259.4375 220.125 C 1259.417969 218.722656 1259.433594 217.316406 1259.480469 215.910156 C 1259.53125 214.507812 1259.613281 213.105469 1259.730469 211.703125 C 1259.847656 210.304688 1260 208.90625 1260.183594 207.515625 C 1260.371094 206.121094 1260.589844 204.734375 1260.84375 203.351562 C 1261.097656 201.972656 1261.386719 200.59375 1261.707031 199.226562 C 1262.027344 197.859375 1262.382812 196.5 1262.773438 195.148438 C 1263.160156 193.800781 1263.582031 192.457031 1264.035156 191.128906 C 1264.488281 189.800781 1264.976562 188.480469 1265.492188 187.175781 C 1266.011719 185.871094 1266.5625 184.578125 1267.144531 183.296875 C 1267.726562 182.019531 1268.339844 180.753906 1268.984375 179.507812 C 1269.628906 178.257812 1270.304688 177.023438 1271.007812 175.808594 C 1271.714844 174.59375 1272.449219 173.394531 1273.210938 172.214844 C 1273.976562 171.035156 1274.769531 169.875 1275.589844 168.734375 C 1276.410156 167.59375 1277.257812 166.476562 1278.132812 165.375 C 1279.007812 164.277344 1279.910156 163.199219 1280.839844 162.144531 C 1281.765625 161.089844 1282.71875 160.058594 1283.699219 159.050781 C 1284.679688 158.042969 1285.683594 157.058594 1286.710938 156.101562 C 1287.738281 155.140625 1288.785156 154.207031 1289.859375 153.300781 C 1290.933594 152.394531 1292.027344 151.515625 1293.144531 150.660156 C 1294.261719 149.808594 1295.398438 148.980469 1296.554688 148.183594 C 1297.710938 147.386719 1298.886719 146.617188 1300.082031 145.875 C 1301.277344 145.136719 1302.488281 144.425781 1303.71875 143.746094 C 1304.945312 143.066406 1306.191406 142.417969 1307.453125 141.796875 C 1308.714844 141.179688 1309.992188 140.589844 1311.28125 140.03125 C 1312.570312 139.476562 1313.875 138.953125 1315.191406 138.460938 C 1316.507812 137.964844 1317.835938 137.507812 1319.171875 137.078125 C 1320.511719 136.652344 1321.859375 136.257812 1323.21875 135.894531 C 1324.578125 135.535156 1325.941406 135.207031 1327.316406 134.914062 C 1328.691406 134.617188 1330.070312 134.359375 1331.457031 134.132812 C 1332.84375 133.90625 1334.238281 133.714844 1335.632812 133.554688 C 1337.027344 133.398438 1338.429688 133.273438 1339.832031 133.183594 C 1341.234375 133.09375 1342.636719 133.039062 1344.042969 133.019531 C 1345.449219 133 1346.851562 133.011719 1348.257812 133.0625 C 1349.660156 133.109375 1351.0625 133.191406 1352.460938 133.308594 C 1353.863281 133.425781 1355.261719 133.578125 1356.652344 133.765625 C 1358.046875 133.949219 1359.433594 134.171875 1360.816406 134.425781 C 1362.199219 134.679688 1363.574219 134.964844 1364.941406 135.289062 C 1366.308594 135.609375 1367.667969 135.964844 1369.015625 136.351562 C 1370.367188 136.742188 1371.707031 137.160156 1373.039062 137.617188 C 1374.367188 138.070312 1375.6875 138.554688 1376.992188 139.074219 C 1378.296875 139.59375 1379.589844 140.144531 1380.867188 140.726562 C 1382.148438 141.308594 1383.410156 141.921875 1384.660156 142.566406 C 1385.910156 143.210938 1387.140625 143.886719 1388.359375 144.589844 C 1389.574219 145.292969 1390.769531 146.027344 1391.953125 146.792969 C 1393.132812 147.554688 1394.292969 148.347656 1395.433594 149.167969 C 1396.574219 149.988281 1397.691406 150.835938 1398.792969 151.710938 C 1399.890625 152.589844 1400.96875 153.488281 1402.023438 154.417969 C 1403.078125 155.347656 1404.109375 156.300781 1405.117188 157.28125 C 1406.125 158.257812 1407.109375 159.261719 1408.066406 160.289062 C 1409.027344 161.316406 1409.960938 162.367188 1410.867188 163.441406 C 1411.773438 164.511719 1412.652344 165.609375 1413.507812 166.726562 C 1414.359375 167.839844 1415.1875 168.976562 1415.984375 170.132812 C 1416.78125 171.292969 1417.550781 172.46875 1418.289062 173.660156 C 1419.03125 174.855469 1419.738281 176.066406 1420.421875 177.296875 C 1421.101562 178.527344 1421.75 179.773438 1422.371094 181.035156 C 1422.988281 182.296875 1423.578125 183.570312 1424.132812 184.863281 C 1424.691406 186.152344 1425.214844 187.453125 1425.707031 188.769531 C 1426.199219 190.085938 1426.660156 191.414062 1427.085938 192.753906 C 1427.515625 194.09375 1427.910156 195.441406 1428.269531 196.796875 C 1428.632812 198.15625 1428.960938 199.523438 1429.253906 200.894531 C 1429.546875 202.269531 1429.808594 203.652344 1430.035156 205.039062 C 1430.261719 206.425781 1430.453125 207.816406 1430.613281 209.210938 C 1430.769531 210.609375 1430.894531 212.007812 1430.984375 213.410156 C 1431.074219 214.8125 1431.128906 216.21875 1431.148438 217.621094 C 1431.167969 219.027344 1431.15625 220.433594 1431.105469 221.835938 C 1431.058594 223.242188 1430.976562 224.644531 1430.859375 226.042969 C 1430.742188 227.445312 1430.589844 228.839844 1430.402344 230.234375 C 1430.21875 231.625 1429.996094 233.011719 1429.742188 234.394531 C 1429.488281 235.777344 1429.203125 237.152344 1428.878906 238.519531 C 1428.558594 239.886719 1428.203125 241.246094 1427.816406 242.597656 C 1427.425781 243.949219 1427.003906 245.289062 1426.550781 246.617188 C 1426.097656 247.949219 1425.613281 249.265625 1425.09375 250.574219 Z M 1425.09375 250.574219 " fill-opacity="1" fill-rule="nonzero"/></g></g></g><g clip-path="url(#8e89645129)"><g clip-path="url(#0e6e5c2b40)"><g clip-path="url(#5a3edcca82)"><path fill="#fde6ff" d="M 1426.53125 191.085938 C 1429.367188 199.367188 1430.949219 208.113281 1431.15625 216.996094 C 1430.414062 217.019531 1429.671875 217.003906 1428.980469 217 C 1424.996094 216.980469 1421.117188 217.832031 1417.140625 217.984375 C 1413.855469 218.109375 1410.574219 217.707031 1407.292969 217.757812 C 1392.449219 217.976562 1378.242188 215.582031 1363.589844 213.714844 C 1339.140625 210.582031 1322.535156 205.855469 1302.40625 190.828125 C 1296.136719 186.152344 1289.960938 180.953125 1285.664062 174.289062 C 1284.28125 172.140625 1283.398438 169.726562 1281.863281 167.691406 C 1281.128906 166.714844 1280.179688 165.386719 1279.292969 163.898438 C 1283.230469 159.175781 1287.625 154.941406 1292.382812 151.226562 C 1299.617188 158.398438 1308.625 162.792969 1317.988281 167.125 C 1326.316406 170.980469 1334.449219 174.457031 1343.296875 177.128906 C 1349.304688 178.941406 1355.566406 179.855469 1361.597656 181.601562 C 1368.523438 183.597656 1375.585938 186.035156 1382.667969 187.382812 C 1388.804688 188.554688 1395.203125 188.542969 1401.40625 189.53125 C 1409.695312 190.84375 1418.175781 190.734375 1426.53125 191.085938 Z M 1426.53125 191.085938 " fill-opacity="1" fill-rule="evenodd"/></g></g></g><g clip-path="url(#11ddf21f8f)"><g clip-path="url(#a7df8cecfb)"><g clip-path="url(#2b6467d94b)"><path fill="#cbb5e8" d="M 1268.855469 257.964844 C 1282.542969 265.148438 1296.359375 271.96875 1310.605469 278.199219 C 1319.53125 282.097656 1327.867188 288 1336.851562 291.46875 C 1340.472656 292.871094 1344.449219 293.023438 1348.195312 293.886719 C 1356.542969 295.800781 1364.855469 298.136719 1373.242188 300.039062 C 1354.496094 306.511719 1333.4375 306.554688 1313.582031 298.667969 C 1293.445312 290.667969 1278.003906 275.867188 1268.855469 257.964844 Z M 1268.855469 257.964844 " fill-opacity="1" fill-rule="evenodd"/></g></g></g><g clip-path="url(#bf28a5e7f3)"><g clip-path="url(#d1fb7a5adb)"><g clip-path="url(#8274a9d5d5)"><path fill="#cbb5e8" d="M 1421.808594 257.851562 C 1417.242188 266.828125 1411.273438 274.695312 1404.253906 281.304688 C 1393.441406 281.210938 1379.832031 280.527344 1375.710938 280.113281 C 1333.554688 275.828125 1308.808594 268.316406 1273.785156 244.042969 C 1269.660156 241.183594 1265.324219 238.609375 1261.125 235.875 C 1258.917969 225.027344 1258.789062 213.671875 1261 202.417969 C 1264.460938 205.320312 1267.820312 208.363281 1271.777344 210.507812 C 1292.625 221.878906 1314.511719 230.167969 1336.878906 237.90625 C 1352.457031 243.300781 1367.957031 249.398438 1383.917969 253.589844 C 1393.222656 256.039062 1404.484375 257.15625 1414.125 257.871094 C 1416.460938 258.042969 1419.175781 257.839844 1421.808594 257.851562 Z M 1421.808594 257.851562 " fill-opacity="1" fill-rule="evenodd"/></g></g></g><g clip-path="url(#0632cc0f30)"><g clip-path="url(#292d8c5a90)"><g clip-path="url(#dba57a1f6f)"><path fill="#cbb5e8" d="M 1430.359375 207.171875 C 1431.347656 214.265625 1431.441406 221.527344 1430.597656 228.8125 C 1421.398438 230.527344 1410.5625 231.253906 1406.96875 231.632812 C 1371.8125 235.351562 1357.882812 223.8125 1327.03125 212.265625 C 1312.738281 206.917969 1299.085938 203.886719 1288.464844 192.125 C 1284.324219 187.527344 1277.972656 177.910156 1273.628906 171.523438 C 1276.640625 166.945312 1280.066406 162.714844 1283.824219 158.886719 C 1288.792969 162.9375 1293.734375 167.09375 1298.464844 171.316406 C 1302.652344 175.058594 1306.144531 179.605469 1310.902344 182.691406 C 1340.472656 201.871094 1377.257812 202.996094 1411.101562 205.683594 C 1417.089844 206.160156 1423.050781 206.878906 1429.054688 207.128906 C 1429.496094 207.15625 1429.933594 207.160156 1430.359375 207.171875 Z M 1284.109375 158.597656 C 1284.121094 158.625 1284.132812 158.65625 1284.148438 158.683594 L 1284.070312 158.628906 L 1284.09375 158.601562 Z M 1284.109375 158.597656 " fill-opacity="1" fill-rule="evenodd"/></g></g></g><g clip-path="url(#0b9325e340)"><g clip-path="url(#6822f4a9e1)"><g clip-path="url(#f21409b341)"><path fill="#bdb3cf" d="M 1409.183594 161.492188 C 1414.410156 167.328125 1418.796875 173.832031 1422.234375 180.789062 C 1414.945312 180.980469 1406.332031 179.402344 1402.195312 179.308594 C 1370.617188 178.570312 1328.425781 163.066406 1301.507812 146.320312 C 1301.164062 146.109375 1300.828125 145.878906 1300.503906 145.628906 C 1306.820312 141.765625 1313.625 138.742188 1320.707031 136.613281 C 1337.859375 148.566406 1357.710938 155.195312 1378.910156 158 C 1388.09375 159.21875 1397.140625 159.089844 1406.257812 160.964844 C 1406.894531 161.085938 1407.90625 161.265625 1409.183594 161.492188 Z M 1409.183594 161.492188 " fill-opacity="1" fill-rule="evenodd"/></g></g></g><g clip-path="url(#131157aa6e)"><g clip-path="url(#a191972cce)"><g clip-path="url(#6fbff6acbd)"><path fill="#fde6ff" d="M 1271.128906 175.570312 C 1269.753906 177.929688 1268.476562 180.375 1267.3125 182.90625 C 1262 182.820312 1257.382812 183.195312 1253.617188 184.070312 C 1249.261719 185.074219 1246.128906 186.539062 1245.074219 189.230469 C 1244.019531 191.914062 1245.328125 195.105469 1247.828125 198.796875 C 1250.464844 202.699219 1254.511719 206.921875 1259.746094 211.320312 C 1259.445312 214.628906 1259.355469 217.925781 1259.445312 221.207031 L 1256.75 219.078125 C 1248.25 212.148438 1242.28125 205.480469 1239.347656 199.710938 C 1236.804688 194.710938 1236.40625 190.183594 1237.925781 186.390625 C 1239.4375 182.613281 1242.84375 179.605469 1248.121094 177.746094 C 1253.671875 175.789062 1261.53125 175.03125 1271.128906 175.570312 Z M 1271.128906 175.570312 " fill-opacity="1" fill-rule="evenodd"/></g></g></g><g clip-path="url(#d70e40bac9)"><g clip-path="url(#98fdd2fd89)"><g clip-path="url(#99a74378c5)"><path fill="#fde6ff" d="M 1428.945312 238.261719 C 1436.285156 244.460938 1441.488281 250.410156 1444.171875 255.636719 C 1446.726562 260.605469 1447.140625 265.128906 1445.652344 268.90625 C 1444.160156 272.695312 1440.765625 275.707031 1435.484375 277.601562 C 1429.394531 279.78125 1420.496094 280.519531 1409.554688 279.726562 L 1406.171875 279.429688 C 1408.449219 277.136719 1410.621094 274.707031 1412.648438 272.128906 C 1419.488281 272.515625 1425.355469 272.222656 1429.953125 271.179688 C 1434.3125 270.199219 1437.457031 268.765625 1438.535156 266.082031 C 1439.613281 263.394531 1438.328125 260.175781 1435.855469 256.449219 C 1433.707031 253.226562 1430.605469 249.785156 1426.683594 246.199219 C 1427.578125 243.578125 1428.328125 240.921875 1428.945312 238.261719 Z M 1428.945312 238.261719 " fill-opacity="1" fill-rule="evenodd"/></g></g></g><g clip-path="url(#3f6c1840a8)"><g clip-path="url(#fda080f98d)"><g clip-path="url(#21395349ce)"><path fill="#fde6ff" d="M 1259.746094 211.320312 C 1263.007812 214.078125 1266.746094 216.90625 1270.871094 219.765625 C 1286.53125 230.636719 1307.910156 241.9375 1332.289062 251.609375 C 1356.652344 261.324219 1379.945312 267.792969 1398.808594 270.648438 C 1403.761719 271.394531 1408.40625 271.898438 1412.667969 272.136719 C 1410.632812 274.710938 1408.472656 277.136719 1406.191406 279.441406 C 1385.550781 277.441406 1358.167969 270.472656 1329.34375 259.058594 C 1300.546875 247.59375 1275.839844 233.921875 1259.457031 221.214844 C 1259.355469 217.925781 1259.449219 214.621094 1259.746094 211.320312 Z M 1259.746094 211.320312 " fill-opacity="1" fill-rule="evenodd"/></g></g></g><g clip-path="url(#df36a39e2d)"><g clip-path="url(#035ad68f72)"><g clip-path="url(#cef213e4f3)"><path fill="#fde6ff" d="M 1277.105469 166.640625 C 1274.847656 169.589844 1272.765625 172.707031 1270.890625 175.988281 L 1270.472656 175.933594 C 1254.554688 174.054688 1241.316406 174.324219 1232.195312 177.097656 C 1227.167969 178.628906 1223.519531 180.742188 1222.164062 184.183594 C 1220.8125 187.613281 1222.058594 191.636719 1224.695312 196.164062 C 1229.472656 204.382812 1238.972656 213.566406 1251.855469 223.015625 C 1254.425781 224.902344 1257.140625 226.796875 1259.976562 228.695312 C 1260.574219 233.789062 1261.625 238.796875 1263.097656 243.667969 C 1251.578125 236.589844 1241.652344 229.398438 1233.703125 222.433594 C 1223.398438 213.40625 1216.378906 204.652344 1213.191406 197 C 1210.609375 190.8125 1210.367188 185.148438 1212.328125 180.277344 C 1214.285156 175.414062 1218.335938 171.480469 1224.460938 168.789062 C 1232.039062 165.476562 1243.136719 163.988281 1256.789062 164.566406 C 1263.046875 164.851562 1269.851562 165.542969 1277.105469 166.640625 Z M 1277.105469 166.640625 " fill-opacity="1" fill-rule="evenodd"/></g></g></g><g clip-path="url(#38dbaecd05)"><g clip-path="url(#0120ffc807)"><g clip-path="url(#818121f2fd)"><path fill="#fde6ff" d="M 1430.707031 227.804688 C 1436.519531 231.859375 1441.738281 235.894531 1446.3125 239.863281 C 1456.632812 248.820312 1463.675781 257.515625 1466.90625 265.121094 C 1469.511719 271.28125 1469.761719 276.921875 1467.839844 281.785156 C 1465.917969 286.660156 1461.871094 290.609375 1455.757812 293.34375 C 1448.195312 296.710938 1437.078125 298.238281 1423.398438 297.738281 C 1413.054688 297.351562 1401.179688 295.832031 1388.25 293.199219 C 1392.609375 290.679688 1396.75 287.785156 1400.628906 284.53125 C 1403.765625 285.054688 1406.828125 285.492188 1409.792969 285.863281 C 1425.664062 287.820312 1438.890625 287.644531 1448.003906 284.929688 C 1453.027344 283.433594 1456.710938 281.355469 1458.074219 277.917969 C 1459.453125 274.476562 1458.257812 270.421875 1455.640625 265.855469 C 1450.933594 257.640625 1441.550781 248.40625 1428.789062 238.929688 C 1429.671875 235.230469 1430.316406 231.519531 1430.707031 227.804688 Z M 1430.707031 227.804688 " fill-opacity="1" fill-rule="evenodd"/></g></g></g><g clip-path="url(#c11dc26af6)"><g clip-path="url(#d34b53f3fa)"><g clip-path="url(#695aa2d562)"><path fill="#fde6ff" d="M 1400.632812 284.519531 C 1396.761719 287.777344 1392.617188 290.683594 1388.253906 293.1875 C 1368.449219 289.179688 1346.1875 282.566406 1323.242188 273.492188 C 1300.625 264.484375 1280.128906 254.191406 1263.101562 243.679688 C 1261.632812 238.8125 1260.570312 233.800781 1259.980469 228.707031 C 1278.046875 240.816406 1301.214844 252.925781 1327.304688 263.265625 C 1353.644531 273.777344 1379.042969 280.949219 1400.632812 284.519531 Z M 1400.632812 284.519531 " fill-opacity="1" fill-rule="evenodd"/></g></g></g><g clip-path="url(#19ef6cee1f)"><g clip-path="url(#91eb6d1d0d)"><path fill="#ffffff" d="M 630.800781 31.269531 L 644.8125 31.269531 L 644.8125 44.625 L 630.800781 44.625 Z M 630.800781 31.269531 " fill-opacity="1" fill-rule="nonzero"/></g></g></svg>